<svg width="81" height="82" viewBox="0 0 81 82" fill="none" xmlns="http://www.w3.org/2000/svg">
<g clip-path="url(#clip0_1498_4509)">
<g clip-path="url(#clip1_1498_4509)">
<path d="M0 30.5C0 13.9315 13.4315 0.5 30 0.5H41C63.0914 0.5 81 18.4086 81 40.5V51.5C81 68.0685 67.5685 81.5 51 81.5H30C13.4315 81.5 0 68.0685 0 51.5V30.5Z" fill="#FFF2F8"/>
<path d="M59.1338 15.7012H19.8662C19.3875 15.7012 19 16.0893 19 16.5674V66.4315C19 66.9096 19.3875 67.2977 19.8662 67.2977H59.1338C59.6125 67.2977 60 66.9096 60 66.4315V16.5674C60 16.0893 59.6125 15.7012 59.1338 15.7012ZM58.2676 60.5647C58.2676 63.3262 56.029 65.5647 53.2676 65.5647H25.7324C22.971 65.5647 20.7324 63.3261 20.7324 60.5647V22.433C20.7324 19.6716 22.971 17.433 25.7324 17.433H53.2676C56.029 17.433 58.2676 19.6716 58.2676 22.433V60.5647Z" fill="#681986"/>
<path d="M27.7943 47.7483L32.1888 46.7683L32.9915 50.9393C33.0614 51.3008 33.3513 51.5786 33.7151 51.6323C33.7578 51.6392 33.8001 51.6421 33.8422 51.6421C34.1604 51.6421 34.4571 51.4666 34.6084 51.179L39.5013 41.8749L44.3941 51.179C44.5455 51.4666 44.8423 51.6421 45.1604 51.6421C45.2027 51.6421 45.2447 51.6392 45.2875 51.6323C45.6513 51.5786 45.9418 51.3008 46.0111 50.9393L46.8138 46.7683L51.2082 47.7483C51.5564 47.8262 51.9162 47.683 52.1154 47.3868C52.3146 47.0905 52.3123 46.7031 52.1091 46.4103L46.4095 38.1733C46.3633 38.1063 46.3073 38.0515 46.2478 38.0018C47.0643 36.7204 47.5437 35.2011 47.5437 33.5686C47.5437 29.028 43.8838 25.334 39.3847 25.334C34.8862 25.334 31.2262 29.0274 31.2262 33.5686C31.2262 35.2635 31.7373 36.8394 32.6115 38.1502C32.6052 38.1583 32.5977 38.1647 32.5919 38.1733L26.8923 46.4103C26.6891 46.7036 26.6868 47.0911 26.886 47.3868C27.0858 47.683 27.4461 47.8262 27.7943 47.7483ZM49.4263 45.5753L46.3212 44.8829C46.0914 44.8309 45.8528 44.8748 45.6576 45.0042C45.462 45.1323 45.3262 45.3345 45.2823 45.5649L44.7781 48.1848L41.2956 41.5619C42.7756 41.2021 44.1031 40.4422 45.1471 39.3906L49.4263 45.5753ZM39.3852 27.0664C42.9291 27.0664 45.8119 29.9831 45.8119 33.5686C45.8119 36.8948 43.3212 39.6407 40.1301 40.0177C40.0331 40.0264 39.9742 40.0356 39.8905 40.0414C39.8085 40.0472 39.7334 40.0536 39.6445 40.0599C39.5602 40.0634 39.4764 40.0657 39.3917 40.0657C39.2842 40.0686 39.1987 40.0651 39.104 40.0582C38.9948 40.0501 38.8968 40.0443 38.7905 40.0356C35.5254 39.7307 32.9593 36.9485 32.9593 33.5686C32.9593 29.9831 35.8425 27.0664 39.3852 27.0664ZM33.7665 39.5205C34.8377 40.5502 36.1814 41.2916 37.6805 41.615L34.2256 48.1848L33.7214 45.5649C33.677 45.335 33.5413 45.1323 33.3461 45.0042C33.1503 44.8748 32.9102 44.8309 32.6827 44.8829L29.5775 45.5753L33.7665 39.5205Z" fill="#681986"/>
<path d="M43.9862 58.1992H35.0107C34.532 58.1992 34.1445 58.5873 34.1445 59.0654C34.1445 59.5435 34.532 59.9316 35.0107 59.9316H43.9862C44.465 59.9316 44.8524 59.5435 44.8524 59.0654C44.8524 58.5873 44.465 58.1992 43.9862 58.1992Z" fill="#681986"/>
</g>
</g>
<defs>
<clipPath id="clip0_1498_4509">
<rect width="81" height="82" fill="white"/>
</clipPath>
<clipPath id="clip1_1498_4509">
<rect width="81" height="82" fill="white"/>
</clipPath>
</defs>
</svg>
