<svg width="81" height="81" viewBox="0 0 81 81" fill="none" xmlns="http://www.w3.org/2000/svg">
<g clip-path="url(#clip0_1498_4498)">
<path d="M0 30C0 13.4315 13.4315 0 30 0H41C63.0914 0 81 17.9086 81 40V51C81 67.5685 67.5685 81 51 81H30C13.4315 81 0 67.5685 0 51V30Z" fill="#ECEDFE"/>
<path d="M38.7437 51.2562H20.235C20.7648 43.2967 27.4082 36.9838 35.4967 36.9838C38.4449 36.9838 41.3065 37.824 43.7708 39.4144C44.2477 39.7213 44.8838 39.5852 45.1922 39.1076C45.5 38.6305 45.3622 37.9939 44.886 37.6862C42.0873 35.8816 38.8405 34.9277 35.4967 34.9277C25.9288 34.9277 18.1445 42.7137 18.1445 52.2842C18.1445 52.8517 18.6044 53.3123 19.1726 53.3123H38.7437C39.3113 53.3123 39.7718 52.8518 39.7718 52.2842C39.7718 51.7168 39.3119 51.2562 38.7437 51.2562Z" fill="#2E35B8" stroke="#2E35B8" stroke-width="0.4"/>
<path d="M35.2098 33.7935C40.792 33.7935 45.3332 29.2518 45.3332 23.6686C45.3332 18.0896 40.7919 13.5508 35.2098 13.5508C29.6314 13.5508 25.0938 18.0897 25.0938 23.6686C25.0938 29.2511 29.6313 33.7935 35.2098 33.7935ZM35.2098 15.6069C39.6576 15.6069 43.277 19.2238 43.277 23.6686C43.277 28.1174 39.658 31.7374 35.2098 31.7374C30.7662 31.7374 27.1498 28.1175 27.1498 23.6686C27.1498 19.2236 30.766 15.6069 35.2098 15.6069Z" fill="#2E35B8" stroke="#2E35B8" stroke-width="0.4"/>
<path d="M42.727 62.3783L38.2896 63.3268C37.8745 63.4151 37.4492 63.2405 37.2163 62.8869C36.9831 62.533 36.9915 62.0726 37.236 61.7268L43.0158 53.5801C42.0025 52.1549 41.403 50.4162 41.4157 48.5364C41.4507 43.7751 45.3708 39.9365 50.1135 39.9591C54.8747 39.9952 58.7197 43.8972 58.6852 48.6579C58.6731 50.4925 58.0834 52.2308 57.0177 53.682L62.6742 61.9082C62.9144 62.2568 62.9154 62.7174 62.6767 63.069C62.4385 63.4205 62.0075 63.5873 61.5966 63.4935L57.1805 62.4832L56.3434 66.6255C56.257 67.0527 55.9108 67.378 55.4801 67.4397C55.4318 67.4465 55.3829 67.45 55.3348 67.45C54.9562 67.45 54.6032 67.2402 54.4244 66.8976L49.9815 58.391L45.4186 66.8336L42.727 62.3783ZM42.727 62.3783L43.5041 66.5337C43.5843 66.9619 43.9249 67.293 44.3552 67.3608C44.4081 67.3689 44.462 67.3732 44.5144 67.3732C44.8877 67.3732 45.2374 67.1696 45.4186 66.8336L42.727 62.3783ZM56.6286 48.6434V48.6449C56.6171 50.3998 55.9215 52.0452 54.6689 53.2785C53.4283 54.5004 51.7917 55.1713 50.0535 55.1708H50.0524H50.0513H50.0502H50.0491H50.048H50.0469H50.0458H50.0448H50.0437H50.0426H50.0415H50.0404H50.0393H50.0382H50.0371H50.036H50.035H50.0339H50.0328H50.0317H50.0306H50.0295H50.0284H50.0273H50.0262H50.0252H50.0241H50.023H50.0219H50.0208H50.0197H50.0186H50.0175H50.0164H50.0154H50.0143H50.0132H50.0121H50.011H50.0099H50.0088H50.0077H50.0066H50.0056H50.0045H50.0034C46.378 55.1458 43.4477 52.1756 43.4718 48.5501C43.4981 44.9379 46.4486 42.0151 50.0562 42.0151H50.0573H50.0584H50.0595H50.0606H50.0617H50.0628H50.0639H50.0649H50.066H50.0671H50.0682H50.0693H50.0704H50.0714H50.0725H50.0736H50.0747H50.0758H50.0769H50.078H50.0791H50.0802H50.0812H50.0823H50.0834H50.0845H50.0856H50.0867H50.0878H50.0889H50.09H50.091H50.0921H50.0932H50.0943H50.0954H50.0965H50.0976H50.0987C53.7257 42.0429 56.6553 45.0168 56.6286 48.6434ZM55.375 61.0408L54.9039 63.3722L51.6156 57.0769C53.0724 56.8115 54.4293 56.1766 55.5776 55.216L59.486 60.9002L56.6121 60.2424C56.3401 60.18 56.0576 60.2308 55.8255 60.3801C55.5924 60.5309 55.4304 60.7692 55.375 61.0408ZM44.992 63.3001L44.5554 60.9632C44.5046 60.6909 44.345 60.45 44.1149 60.2965C43.8836 60.1418 43.5996 60.0873 43.3286 60.1464L40.4401 60.7638L44.434 55.1347C45.5386 56.0844 46.8842 56.7577 48.3686 57.0519L44.992 63.3001Z" fill="#2E35B8"/>
<path d="M42.727 62.3783L38.2896 63.3268C37.8745 63.4151 37.4492 63.2405 37.2163 62.8869C36.9831 62.533 36.9915 62.0726 37.236 61.7268L43.0158 53.5801C42.0025 52.1549 41.403 50.4162 41.4157 48.5364C41.4507 43.7751 45.3708 39.9365 50.1135 39.9591C54.8747 39.9952 58.7197 43.8972 58.6852 48.6579C58.6731 50.4925 58.0834 52.2308 57.0177 53.682L62.6742 61.9082C62.9144 62.2568 62.9154 62.7174 62.6767 63.069C62.4385 63.4205 62.0075 63.5873 61.5966 63.4935L57.1805 62.4832L56.3434 66.6255C56.257 67.0527 55.9108 67.378 55.4801 67.4397C55.4318 67.4465 55.3829 67.45 55.3348 67.45C54.9562 67.45 54.6032 67.2402 54.4244 66.8976L49.9815 58.391L45.4186 66.8336M42.727 62.3783L45.4186 66.8336M42.727 62.3783L43.5041 66.5337C43.5843 66.9619 43.9249 67.293 44.3552 67.3608C44.4081 67.3689 44.462 67.3732 44.5144 67.3732C44.8877 67.3732 45.2374 67.1696 45.4186 66.8336M56.6286 48.6434V48.6449C56.6171 50.3998 55.9215 52.0452 54.6689 53.2785C53.4283 54.5004 51.7917 55.1713 50.0535 55.1708H50.0524H50.0513H50.0502H50.0491H50.048H50.0469H50.0458H50.0448H50.0437H50.0426H50.0415H50.0404H50.0393H50.0382H50.0371H50.036H50.035H50.0339H50.0328H50.0317H50.0306H50.0295H50.0284H50.0273H50.0262H50.0252H50.0241H50.023H50.0219H50.0208H50.0197H50.0186H50.0175H50.0164H50.0154H50.0143H50.0132H50.0121H50.011H50.0099H50.0088H50.0077H50.0066H50.0056H50.0045H50.0034C46.378 55.1458 43.4477 52.1756 43.4718 48.5501C43.4981 44.9379 46.4486 42.0151 50.0562 42.0151H50.0573H50.0584H50.0595H50.0606H50.0617H50.0628H50.0639H50.0649H50.066H50.0671H50.0682H50.0693H50.0704H50.0714H50.0725H50.0736H50.0747H50.0758H50.0769H50.078H50.0791H50.0802H50.0812H50.0823H50.0834H50.0845H50.0856H50.0867H50.0878H50.0889H50.09H50.091H50.0921H50.0932H50.0943H50.0954H50.0965H50.0976H50.0987C53.7257 42.0429 56.6553 45.0168 56.6286 48.6434ZM55.375 61.0408L54.9039 63.3722L51.6156 57.0769C53.0724 56.8115 54.4293 56.1766 55.5776 55.216L59.486 60.9002L56.6121 60.2424C56.3401 60.18 56.0576 60.2308 55.8255 60.3801C55.5924 60.5309 55.4304 60.7692 55.375 61.0408ZM44.992 63.3001L44.5554 60.9632C44.5046 60.6909 44.345 60.45 44.1149 60.2965C43.8836 60.1418 43.5996 60.0873 43.3286 60.1464L40.4401 60.7638L44.434 55.1347C45.5386 56.0844 46.8842 56.7577 48.3686 57.0519L44.992 63.3001Z" stroke="#2E35B8" stroke-width="0.4"/>
</g>
<defs>
<clipPath id="clip0_1498_4498">
<rect width="81" height="81" fill="white"/>
</clipPath>
</defs>
</svg>
