<svg width="81" height="82" viewBox="0 0 81 82" fill="none" xmlns="http://www.w3.org/2000/svg">
<g clip-path="url(#clip0_1498_4521)">
<g clip-path="url(#clip1_1498_4521)">
<path d="M0 30.5C0 13.9315 13.4315 0.5 30 0.5H41C63.0914 0.5 81 18.4086 81 40.5V51.5C81 68.0685 67.5685 81.5 51 81.5H30C13.4315 81.5 0 68.0685 0 51.5V30.5Z" fill="#EAFDFF"/>
<path d="M22.3511 23.8294L22.3601 23.8336L28.3149 26.4517C27.155 28.2461 26.5503 30.2879 26.5503 32.4297C26.5503 38.4987 31.4811 43.4839 37.6046 43.4839C43.7274 43.4839 48.6588 38.5525 48.6588 32.4297C48.6588 30.3403 48.0547 28.2511 46.9425 26.5005L51.8769 24.1785V34.1409L50.2464 37.6121L50.2417 37.6229C50.119 37.9298 50.1057 38.2754 50.3206 38.562C50.5099 38.8144 50.831 39.0145 51.1723 39.0145H54.3115C54.6149 39.0145 54.9708 38.8936 55.1255 38.5408C55.3243 38.2585 55.3087 37.9222 55.1889 37.6229L55.1883 37.6214L53.7667 34.1462V23.1716C53.7667 22.9552 53.7552 22.719 53.6173 22.4949C53.4797 22.2713 53.2367 22.0905 52.8473 21.9237C52.8422 21.9215 52.837 21.9195 52.8318 21.9178C52.8329 21.9182 52.7797 21.8957 52.6559 21.8419C52.5404 21.7915 52.3753 21.7192 52.1676 21.6279C51.7524 21.4454 51.1679 21.1876 50.4709 20.8796C49.0768 20.2636 47.2329 19.4472 45.3939 18.6325C43.555 17.8178 41.721 17.0047 40.3468 16.3953L38.6871 15.6593L38.2225 15.4531L38.1001 15.3989L38.0687 15.3849L38.0621 15.382C37.7958 15.2503 37.5198 15.2503 37.2535 15.382L22.3627 21.9765C22.017 22.1168 21.7617 22.5121 21.7617 22.9056C21.7617 23.3036 21.9669 23.6373 22.3511 23.8294ZM46.6094 32.4297C46.6094 37.4271 42.5488 41.4877 37.5514 41.4877C32.5539 41.4877 28.4933 37.4271 28.4933 32.4297C28.4933 30.5608 29.0818 28.7878 30.1194 27.2533L37.2 30.4291C37.3477 30.5016 37.4936 30.5015 37.5939 30.5014C37.5975 30.5014 37.6011 30.5014 37.6046 30.5014C37.6081 30.5014 37.6116 30.5014 37.6153 30.5014C37.7156 30.5015 37.8614 30.5016 38.0091 30.4291L44.9865 27.3049C46.0685 28.8365 46.6094 30.6079 46.6094 32.4297ZM52.7924 37.0183H52.7101L52.7544 36.9234L52.7924 37.0183ZM25.2209 22.9056L37.6578 17.3781L50.0946 22.9056L37.6578 28.4331L25.2209 22.9056Z" fill="#3B97D3" stroke="#3B97D3" stroke-width="0.4" stroke-linecap="round" stroke-linejoin="round"/>
<path d="M37.8712 45C27.3854 45 18.8359 53.5494 18.8359 64.0352C18.8359 64.5713 19.2979 65.0333 19.834 65.0333H55.9083C56.4444 65.0333 56.9064 64.5713 56.9064 64.0352C56.9064 53.5494 48.357 45 37.8712 45ZM54.8994 63.0371H20.8961C21.4213 54.0902 28.8444 46.9962 37.9244 46.9962C47.0027 46.9962 54.3743 54.1407 54.8994 63.0371Z" fill="#3B97D3" stroke="#3B97D3" stroke-width="0.4" stroke-linecap="round" stroke-linejoin="round"/>
</g>
</g>
<defs>
<clipPath id="clip0_1498_4521">
<rect width="81" height="82" fill="white"/>
</clipPath>
<clipPath id="clip1_1498_4521">
<rect width="81" height="82" fill="white"/>
</clipPath>
</defs>
</svg>
