<svg width="81" height="81" viewBox="0 0 81 81" fill="none" xmlns="http://www.w3.org/2000/svg">
<g clip-path="url(#clip0_1498_4488)">
<path d="M0 30C0 13.4315 13.4315 0 30 0H41C63.0914 0 81 17.9086 81 40V51C81 67.5685 67.5685 81 51 81H30C13.4315 81 0 67.5685 0 51V30Z" fill="#FFF0EE"/>
<path d="M30.1476 23.5399C30.1187 23.5137 30.0878 23.49 30.0547 23.468C30.049 23.4642 30.0435 23.4603 30.038 23.4564C30.0282 23.4495 30.0184 23.4425 30.0079 23.4365C29.969 23.4144 29.9275 23.3971 29.8845 23.3813L30.1708 23.5578C30.1668 23.5539 30.1623 23.5507 30.1577 23.5475C30.1542 23.5451 30.1508 23.5426 30.1476 23.5399ZM30.1476 23.5399L30.2822 23.392C30.2797 23.3897 30.2773 23.3875 30.2748 23.3854C30.2748 23.3853 30.2749 23.3855 30.2748 23.3854L30.2727 23.3838L30.2714 23.383C30.2707 23.3825 30.2712 23.3828 30.2714 23.383C30.2718 23.3833 30.274 23.3849 30.2778 23.3881L30.1476 23.5399ZM38.9459 31.9111L30.3122 23.4164C30.3119 23.4161 30.3116 23.4158 30.3113 23.4155L38.9459 31.9111ZM38.9459 31.9111L53.3435 17.514C53.7295 17.1281 54.3546 17.1281 54.7406 17.514L62.9117 25.6852C63.2977 26.0712 63.2975 26.6961 62.9125 27.0825L48.6004 41.395L58.7648 51.1783C58.8795 51.2888 58.9599 51.4231 59.0091 51.5655C61.4622 54.1618 61.4231 58.267 58.8811 60.809L38.9459 31.9111ZM20.6802 32.9065C20.6769 32.9025 20.6746 32.8997 20.6714 32.8959C20.6688 32.8929 20.6655 32.8891 20.6603 32.8828C20.6512 32.872 20.6385 32.8563 20.6258 32.8371C20.6256 32.8369 20.626 32.8374 20.6258 32.8371L20.7924 32.7265L20.6802 32.9065ZM20.6802 32.9065C20.6841 32.9114 20.6865 32.9147 20.6907 32.9204C20.6936 32.9244 20.6974 32.9297 20.7032 32.9374C20.7141 32.9521 20.7309 32.9741 20.7533 32.9959C20.7532 32.9958 20.7534 32.996 20.7533 32.9959L29.3767 41.4804M20.6802 32.9065L29.3767 41.4804L20.6802 32.9065ZM29.3767 41.4804L16.9418 53.9157C16.5559 54.3017 16.5559 54.9268 16.9418 55.3128L25.1135 63.485C25.2987 63.6702 25.5503 63.7742 25.8123 63.7742C26.0745 63.7742 26.3253 63.67 26.5108 63.4852L39.0788 50.9172L49.2187 60.7717C49.3699 60.9174 49.553 60.9936 49.7336 61.0241C50.956 62.1368 52.5238 62.7524 54.1894 62.7524C55.9612 62.7524 57.6286 62.0621 58.8811 60.809L29.3767 41.4804ZM49.912 23.7401L53.299 27.127C53.6851 27.5125 53.6851 28.1389 53.299 28.5243M49.912 23.7401L48.899 31.5265L45.5121 28.1395L48.5145 25.1371L51.9016 28.5242C52.0946 28.7172 52.3479 28.8134 52.6003 28.8134C52.8527 28.8134 53.106 28.7173 53.299 28.5243M49.912 23.7401L54.0428 19.6093L60.8165 26.3839L47.1838 40.0171L40.3542 33.2969L44.1145 29.5366L47.5016 32.9236C47.6946 33.1167 47.9479 33.2128 48.2004 33.2128C48.4528 33.2128 48.7061 33.1167 48.8991 32.9236C49.2851 32.5382 49.285 31.9119 48.899 31.5265L49.912 23.7401ZM53.299 28.5243L53.1577 28.3828L53.299 28.5243ZM53.299 28.5243L53.1577 28.3828L53.299 28.5243ZM53.1577 28.3828C53.4655 28.0754 53.4655 27.5759 53.1577 27.2686V28.3828ZM25.2531 27.2579C24.9312 27.3526 24.6788 27.6043 24.584 27.9271L23.8079 30.5672L22.0993 31.0698L19.2371 21.9111L28.3963 24.7732L27.8937 26.4813L25.2531 27.2579ZM31.4201 40.7185L23.3363 32.7652L24.8827 32.3106C25.2046 32.2158 25.457 31.9642 25.5519 31.6414L26.3285 29.0014L28.9691 28.2248C29.291 28.13 29.5433 27.8784 29.6382 27.5556L30.1019 25.98L46.4878 42.1019L46.4894 42.1034L56.6696 51.903L49.8967 58.6753L31.421 40.7194L31.4201 40.7185ZM25.8118 61.3892L19.0371 54.614L21.7233 51.9278L25.1103 55.3149C25.3034 55.5079 25.5567 55.6041 25.8091 55.6041C26.0615 55.6041 26.3149 55.5079 26.5079 55.3149C26.8938 54.9289 26.8938 54.3038 26.5079 53.9178L23.1208 50.5308L25.7293 47.9223L29.1163 51.3094C29.3094 51.5024 29.5627 51.5986 29.8151 51.5986C30.0675 51.5986 30.3208 51.5024 30.5139 51.3094C30.8998 50.9235 30.8998 50.2983 30.5139 49.9124L27.1268 46.5253L30.7905 42.8616L37.662 49.54L25.8118 61.3892ZM57.4825 59.4115C55.8464 61.0466 53.2878 61.2076 51.4683 59.8972L57.9686 53.3969C59.2791 55.217 59.118 57.7764 57.4825 59.4115Z" fill="#F66962"/>
<path d="M30.1476 23.5399C30.1187 23.5137 30.0878 23.49 30.0547 23.468C30.049 23.4642 30.0435 23.4603 30.038 23.4564C30.0282 23.4495 30.0184 23.4425 30.0079 23.4365C29.969 23.4144 29.9275 23.3971 29.8845 23.3813L30.1708 23.5578C30.1668 23.5539 30.1623 23.5507 30.1577 23.5475C30.1542 23.5451 30.1508 23.5426 30.1476 23.5399ZM30.1476 23.5399L30.2822 23.392C30.2797 23.3897 30.2773 23.3875 30.2748 23.3854M30.1476 23.5399L30.2778 23.3881C30.274 23.3849 30.2718 23.3833 30.2714 23.383M30.2748 23.3854C30.2748 23.3853 30.2749 23.3855 30.2748 23.3854ZM30.2748 23.3854L30.2727 23.3838L30.2714 23.383M30.2714 23.383C30.2707 23.3825 30.2712 23.3828 30.2714 23.383ZM38.9459 31.9111L30.3122 23.4164C30.3119 23.4161 30.3116 23.4158 30.3113 23.4155L38.9459 31.9111ZM38.9459 31.9111L53.3435 17.514C53.7295 17.1281 54.3546 17.1281 54.7406 17.514L62.9117 25.6852C63.2977 26.0712 63.2975 26.6961 62.9125 27.0825L48.6004 41.395L58.7648 51.1783C58.8795 51.2888 58.9599 51.4231 59.0091 51.5655C61.4622 54.1618 61.4231 58.267 58.8811 60.809M38.9459 31.9111L58.8811 60.809M58.8811 60.809C57.6286 62.0621 55.9612 62.7524 54.1894 62.7524C52.5238 62.7524 50.956 62.1368 49.7336 61.0241C49.553 60.9936 49.3699 60.9174 49.2187 60.7717L39.0788 50.9172L26.5108 63.4852C26.3253 63.67 26.0745 63.7742 25.8123 63.7742C25.5503 63.7742 25.2987 63.6702 25.1135 63.485L16.9418 55.3128C16.5559 54.9268 16.5559 54.3017 16.9418 53.9157L29.3767 41.4804M58.8811 60.809L29.3767 41.4804M20.6802 32.9065C20.6769 32.9025 20.6746 32.8997 20.6714 32.8959C20.6688 32.8929 20.6655 32.8891 20.6603 32.8828C20.6512 32.872 20.6385 32.8563 20.6258 32.8371M20.6802 32.9065L20.7924 32.7265L20.6258 32.8371M20.6802 32.9065C20.6841 32.9114 20.6865 32.9147 20.6907 32.9204C20.6936 32.9244 20.6974 32.9297 20.7032 32.9374C20.7141 32.9521 20.7309 32.9741 20.7533 32.9959M20.6802 32.9065L29.3767 41.4804M20.6258 32.8371C20.6256 32.8369 20.626 32.8374 20.6258 32.8371ZM20.7533 32.9959C20.7534 32.996 20.7532 32.9958 20.7533 32.9959ZM20.7533 32.9959L29.3767 41.4804M49.912 23.7401L53.299 27.127C53.6851 27.5125 53.6851 28.1389 53.299 28.5243M49.912 23.7401L48.899 31.5265M49.912 23.7401L54.0428 19.6093L60.8165 26.3839L47.1838 40.0171L40.3542 33.2969L44.1145 29.5366L47.5016 32.9236C47.6946 33.1167 47.9479 33.2128 48.2004 33.2128C48.4528 33.2128 48.7061 33.1167 48.8991 32.9236C49.2851 32.5382 49.285 31.9119 48.899 31.5265M53.299 28.5243C53.106 28.7173 52.8527 28.8134 52.6003 28.8134C52.3479 28.8134 52.0946 28.7172 51.9016 28.5242L48.5145 25.1371L45.5121 28.1395L48.899 31.5265M53.299 28.5243L53.1577 28.3828M53.1577 28.3828C53.4655 28.0754 53.4655 27.5759 53.1577 27.2686V28.3828ZM20.5028 32.586L16.7884 20.7001M25.2531 27.2579C24.9312 27.3526 24.6788 27.6043 24.584 27.9271L23.8079 30.5672L22.0993 31.0698L19.2371 21.9111L28.3963 24.7732L27.8937 26.4813L25.2531 27.2579ZM31.4201 40.7185L23.3363 32.7652L24.8827 32.3106C25.2046 32.2158 25.457 31.9642 25.5519 31.6414L26.3285 29.0014L28.9691 28.2248C29.291 28.13 29.5433 27.8784 29.6382 27.5556L30.1019 25.98L46.4878 42.1019L46.4894 42.1034L56.6696 51.903L49.8967 58.6753L31.421 40.7194L31.4201 40.7185ZM25.8118 61.3892L19.0371 54.614L21.7233 51.9278L25.1103 55.3149C25.3034 55.5079 25.5567 55.6041 25.8091 55.6041C26.0615 55.6041 26.3149 55.5079 26.5079 55.3149C26.8938 54.9289 26.8938 54.3038 26.5079 53.9178L23.1208 50.5308L25.7293 47.9223L29.1163 51.3094C29.3094 51.5024 29.5627 51.5986 29.8151 51.5986C30.0675 51.5986 30.3208 51.5024 30.5139 51.3094C30.8998 50.9235 30.8998 50.2983 30.5139 49.9124L27.1268 46.5253L30.7905 42.8616L37.662 49.54L25.8118 61.3892ZM57.4825 59.4115C55.8464 61.0466 53.2878 61.2076 51.4683 59.8972L57.9686 53.3969C59.2791 55.217 59.118 57.7764 57.4825 59.4115Z" stroke="#F66962" stroke-width="0.4"/>
</g>
<defs>
<clipPath id="clip0_1498_4488">
<rect width="81" height="81" fill="white"/>
</clipPath>
</defs>
</svg>
